<svg width="400" height="400" viewBox="0 0 400 400" fill="none" xmlns="http://www.w3.org/2000/svg">
<path fill-rule="evenodd" clip-rule="evenodd" d="M200.808 27.0562C198.648 29.4437 198.955 33.9607 201.434 36.269L203.516 38.2067L196.875 62.2043C192.886 76.617 189.915 85.8816 189.433 85.4002C188.993 84.9602 185.371 78.7237 181.385 71.542C174.932 59.9172 174.235 58.2241 175.03 56.1165C176.503 52.2128 172.466 49.1645 169.608 52.0227C168 53.6305 168.343 56.0012 170.393 57.4365C172.068 58.6104 172.326 60.1258 173.26 74.2867C173.823 82.8447 174.049 89.9921 173.761 90.1707C173.473 90.3485 168.223 86.5249 162.094 81.6743C152.387 73.9902 150.952 72.5232 150.952 70.2871C150.952 68.2798 150.469 67.5996 148.74 67.1649C146.039 66.4873 143.728 68.1936 144.089 70.5995C144.342 72.2812 145.502 73.2518 148.312 74.1336C149.078 74.3747 152.771 82.5226 157.112 93.5508L164.592 112.554L170.312 112.549C181.192 112.542 192.174 107.937 201.177 99.6034L206.15 95.001L207.811 96.8482C210.205 99.5102 219.303 105.832 224.432 108.396C230.132 111.247 237.314 112.785 243.214 112.419L247.916 112.127L255.534 93.2067C262.05 77.0226 263.439 74.2462 265.133 74.0051C267.786 73.6285 269.23 70.8802 267.992 68.5667C266.272 65.3538 261.832 66.651 261.832 70.3663C261.832 72.5074 260.288 74.0676 250.824 81.4922C244.769 86.2406 239.363 90.279 238.808 90.4646C238.093 90.7058 237.957 89.4333 238.34 86.0646C238.636 83.459 239.151 76.2852 239.482 70.1243C240.052 59.5714 240.21 58.841 242.213 57.5289C244.644 55.9361 244.662 53.0118 242.252 51.5009C239.666 49.8808 237.593 51.9268 237.842 55.8534C238.016 58.5998 236.668 61.6666 230.035 73.6179C225.624 81.5634 221.729 87.7358 221.378 87.3354C221.026 86.9341 218.444 78.2907 215.639 68.1267C212.833 57.9627 209.83 47.1695 208.966 44.1423L207.393 38.637L209.532 36.0947C211.996 33.1661 212.26 30.1978 210.302 27.403C208.539 24.8862 202.956 24.682 200.808 27.0562ZM200.394 102.414C184.819 115.554 171.496 117.925 150.512 111.292C149.091 110.843 147.861 111.908 144.132 116.817C141.59 120.162 139.512 123.12 139.512 123.39C139.512 123.66 142.779 127.176 146.772 131.204C158.339 142.871 161.484 150.925 161.501 168.922C161.519 187.249 157.991 196.242 146.337 207.578C142.589 211.224 139.521 214.512 139.517 214.885C139.514 215.259 141.555 218.164 144.052 221.342C147.6 225.857 148.994 227.029 150.432 226.709C151.444 226.483 154.632 225.657 157.517 224.872C172.483 220.803 188.556 225.054 201.088 236.395L206.415 241.215L211.497 236.511C217.242 231.193 225.549 226.45 232.236 224.67C238.342 223.045 248.883 223.137 255.267 224.872C258.152 225.657 261.316 226.478 262.299 226.698C263.667 227.005 265.076 225.824 268.295 221.68C270.609 218.7 272.69 215.772 272.92 215.175C273.149 214.576 270.888 211.957 267.894 209.354C255.358 198.45 249.47 183.274 250.673 164.965C251.66 149.947 255.576 141.489 266.833 130.064L273.437 123.361L268.734 117.083C264.966 112.052 263.681 110.906 262.272 111.32C254.59 113.573 246.67 115.192 243.352 115.186C237.824 115.179 229.203 113.007 223.755 110.251C219.07 107.88 210.341 101.565 208.224 99.0138C207.581 98.2403 206.808 97.6331 206.504 97.6657C206.2 97.6982 203.451 99.8358 200.394 102.414Z" fill="url(#paint0_linear_3633_898)"/>
<path d="M83.5815 303.576C83.2295 303.576 83.0535 303.4 83.0535 303.048C83.0535 302.907 83.1063 302.625 83.2119 302.203C83.2823 301.781 83.3879 301.446 83.5287 301.2C84.6199 301.024 85.4999 300.672 86.1687 300.144C86.8727 299.581 87.5415 298.542 88.1751 297.029L100.741 267.249C100.917 266.827 101.129 266.493 101.375 266.246C101.621 265.965 101.938 265.824 102.325 265.824H104.068L115.473 295.761C116.036 297.169 116.546 298.296 117.004 299.141C117.497 299.95 118.095 300.443 118.799 300.619C119.081 300.689 119.415 300.742 119.802 300.777C120.189 300.813 120.612 300.848 121.069 300.883C121.105 301.235 121.069 301.64 120.964 302.097C120.893 302.555 120.823 302.872 120.753 303.048C120.647 303.4 120.453 303.576 120.172 303.576H108.556C108.204 303.576 108.028 303.4 108.028 303.048C108.028 302.907 108.063 302.625 108.133 302.203C108.239 301.781 108.362 301.446 108.503 301.2C109.418 301.165 110.069 301.059 110.457 300.883C110.844 300.707 111.037 300.337 111.037 299.774C111.037 299.422 110.949 298.982 110.773 298.454C110.633 297.891 110.421 297.222 110.14 296.448L108.186 291.062H94.4055L91.9767 297.081C91.7303 297.68 91.5367 298.19 91.3959 298.613C91.2551 299.035 91.1847 299.387 91.1847 299.669C91.1847 300.232 91.5719 300.601 92.3463 300.777C92.6279 300.813 92.9799 300.848 93.4023 300.883C93.8247 300.883 94.2471 300.883 94.6695 300.883C94.6695 301.833 94.5991 302.555 94.4583 303.048C94.3527 303.4 94.1591 303.576 93.8775 303.576H83.5815ZM95.6727 287.894H107.025L101.903 274.008C101.868 273.832 101.78 273.744 101.639 273.744C101.498 273.744 101.393 273.832 101.322 274.008L95.6727 287.894ZM126.347 303.576C125.995 303.576 125.819 303.4 125.819 303.048C125.819 302.907 125.837 302.625 125.872 302.203C125.907 301.745 125.995 301.411 126.136 301.2C127.544 301.129 128.512 300.813 129.04 300.249C129.603 299.651 129.903 298.912 129.938 298.032C130.043 295.638 130.131 292.805 130.202 289.531C130.272 286.222 130.307 282.949 130.307 279.71C130.307 277.985 130.29 276.331 130.255 274.747C130.255 273.128 130.219 271.649 130.149 270.312C130.114 269.713 129.973 269.238 129.727 268.886C129.515 268.534 129.111 268.341 128.512 268.305L126.823 268.2C126.471 268.2 126.295 267.971 126.295 267.513C126.295 267.021 126.471 266.457 126.823 265.824C127.351 265.683 128.072 265.56 128.987 265.454C129.938 265.349 130.871 265.261 131.786 265.19C132.701 265.085 133.37 265.032 133.792 265.032C134.496 265.032 134.971 265.208 135.218 265.56C135.499 265.912 135.605 266.528 135.535 267.408C135.464 268.147 135.394 269.397 135.323 271.157C135.288 272.881 135.235 274.905 135.165 277.229C135.13 279.552 135.095 281.981 135.059 284.515C135.059 287.014 135.059 289.39 135.059 291.643C135.059 292.981 135.059 294.248 135.059 295.445C135.059 296.606 135.077 297.645 135.112 298.56C135.147 299.229 135.271 299.757 135.482 300.144C135.693 300.496 136.045 300.707 136.538 300.777C136.749 300.813 137.119 300.848 137.647 300.883C138.21 300.883 138.667 300.883 139.019 300.883C139.019 301.833 138.949 302.555 138.808 303.048C138.703 303.4 138.509 303.576 138.227 303.576H126.347ZM164.883 303.576C164.531 303.576 164.355 303.4 164.355 303.048C164.355 302.907 164.408 302.625 164.514 302.203C164.584 301.781 164.69 301.446 164.83 301.2C165.922 301.024 166.802 300.672 167.47 300.144C168.174 299.581 168.843 298.542 169.477 297.029L182.043 267.249C182.219 266.827 182.43 266.493 182.677 266.246C182.923 265.965 183.24 265.824 183.627 265.824H185.37L196.774 295.761C197.338 297.169 197.848 298.296 198.306 299.141C198.798 299.95 199.397 300.443 200.101 300.619C200.382 300.689 200.717 300.742 201.104 300.777C201.491 300.813 201.914 300.848 202.371 300.883C202.406 301.235 202.371 301.64 202.266 302.097C202.195 302.555 202.125 302.872 202.054 303.048C201.949 303.4 201.755 303.576 201.474 303.576H189.858C189.506 303.576 189.33 303.4 189.33 303.048C189.33 302.907 189.365 302.625 189.435 302.203C189.541 301.781 189.664 301.446 189.805 301.2C190.72 301.165 191.371 301.059 191.758 300.883C192.146 300.707 192.339 300.337 192.339 299.774C192.339 299.422 192.251 298.982 192.075 298.454C191.934 297.891 191.723 297.222 191.442 296.448L189.488 291.062H175.707L173.278 297.081C173.032 297.68 172.838 298.19 172.698 298.613C172.557 299.035 172.486 299.387 172.486 299.669C172.486 300.232 172.874 300.601 173.648 300.777C173.93 300.813 174.282 300.848 174.704 300.883C175.126 300.883 175.549 300.883 175.971 300.883C175.971 301.833 175.901 302.555 175.76 303.048C175.654 303.4 175.461 303.576 175.179 303.576H164.883ZM176.974 287.894H188.326L183.205 274.008C183.17 273.832 183.082 273.744 182.941 273.744C182.8 273.744 182.694 273.832 182.624 274.008L176.974 287.894ZM208.177 303.576C207.825 303.576 207.649 303.4 207.649 303.048C207.649 302.907 207.684 302.625 207.755 302.203C207.86 301.781 207.984 301.446 208.124 301.2C209.427 301.129 210.324 300.777 210.817 300.144C211.345 299.475 211.609 298.419 211.609 296.976V272.952C211.609 271.825 211.539 271.033 211.398 270.576C211.257 270.083 210.94 269.766 210.448 269.625C209.99 269.485 209.251 269.379 208.23 269.309C208.23 268.851 208.265 268.429 208.336 268.041C208.406 267.619 208.459 267.32 208.494 267.144C208.6 266.792 208.793 266.616 209.075 266.616H220.057C220.409 266.616 220.585 266.792 220.585 267.144C220.585 267.285 220.532 267.566 220.427 267.989C220.356 268.411 220.251 268.745 220.11 268.992C218.702 269.027 217.787 269.344 217.364 269.942C216.942 270.505 216.731 271.509 216.731 272.952V282.667H235.528V272.952C235.528 271.861 235.457 271.069 235.316 270.576C235.176 270.083 234.859 269.766 234.366 269.625C233.908 269.485 233.169 269.379 232.148 269.309C232.148 268.851 232.184 268.429 232.254 268.041C232.324 267.619 232.377 267.32 232.412 267.144C232.518 266.792 232.712 266.616 232.993 266.616H243.817C244.169 266.616 244.345 266.792 244.345 267.144C244.345 267.285 244.292 267.566 244.187 267.989C244.116 268.411 244.011 268.745 243.87 268.992C242.568 269.027 241.705 269.344 241.283 269.942C240.86 270.505 240.649 271.509 240.649 272.952V296.976C240.649 298.525 240.72 299.528 240.86 299.985C241.001 300.443 241.336 300.707 241.864 300.777C242.075 300.813 242.409 300.848 242.867 300.883C243.324 300.883 243.729 300.883 244.081 300.883C244.081 301.833 244.011 302.555 243.87 303.048C243.764 303.4 243.571 303.576 243.289 303.576H231.99C231.638 303.576 231.462 303.4 231.462 303.048C231.462 302.907 231.497 302.625 231.568 302.203C231.673 301.781 231.796 301.446 231.937 301.2C233.24 301.129 234.155 300.777 234.683 300.144C235.246 299.475 235.528 298.419 235.528 296.976V286.099H216.731V296.976C216.731 298.525 216.801 299.528 216.942 299.985C217.083 300.443 217.417 300.707 217.945 300.777C218.227 300.813 218.596 300.848 219.054 300.883C219.547 300.883 219.969 300.883 220.321 300.883C220.321 301.833 220.251 302.555 220.11 303.048C220.004 303.4 219.811 303.576 219.529 303.576H208.177ZM250.417 303.576C250.065 303.576 249.889 303.4 249.889 303.048C249.889 302.907 249.942 302.625 250.048 302.203C250.118 301.781 250.224 301.446 250.364 301.2C251.456 301.024 252.336 300.672 253.004 300.144C253.708 299.581 254.377 298.542 255.011 297.029L267.577 267.249C267.753 266.827 267.964 266.493 268.211 266.246C268.457 265.965 268.774 265.824 269.161 265.824H270.904L282.308 295.761C282.872 297.169 283.382 298.296 283.84 299.141C284.332 299.95 284.931 300.443 285.635 300.619C285.916 300.689 286.251 300.742 286.638 300.777C287.025 300.813 287.448 300.848 287.905 300.883C287.94 301.235 287.905 301.64 287.8 302.097C287.729 302.555 287.659 302.872 287.588 303.048C287.483 303.4 287.289 303.576 287.008 303.576H275.392C275.04 303.576 274.864 303.4 274.864 303.048C274.864 302.907 274.899 302.625 274.969 302.203C275.075 301.781 275.198 301.446 275.339 301.2C276.254 301.165 276.905 301.059 277.292 300.883C277.68 300.707 277.873 300.337 277.873 299.774C277.873 299.422 277.785 298.982 277.609 298.454C277.468 297.891 277.257 297.222 276.976 296.448L275.022 291.062H261.241L258.812 297.081C258.566 297.68 258.372 298.19 258.232 298.613C258.091 299.035 258.02 299.387 258.02 299.669C258.02 300.232 258.408 300.601 259.182 300.777C259.464 300.813 259.816 300.848 260.238 300.883C260.66 300.883 261.083 300.883 261.505 300.883C261.505 301.833 261.435 302.555 261.294 303.048C261.188 303.4 260.995 303.576 260.713 303.576H250.417ZM262.508 287.894H273.86L268.739 274.008C268.704 273.832 268.616 273.744 268.475 273.744C268.334 273.744 268.228 273.832 268.158 274.008L262.508 287.894ZM293.183 303.101C293.183 302.925 293.218 302.625 293.289 302.203C293.394 301.781 293.517 301.446 293.658 301.2C294.961 301.129 295.858 300.777 296.351 300.144C296.879 299.475 297.143 298.419 297.143 296.976V272.952C297.143 271.79 297.073 270.963 296.932 270.47C296.791 269.942 296.474 269.625 295.981 269.52C295.524 269.379 294.785 269.309 293.764 269.309C293.764 268.851 293.799 268.429 293.869 268.041C293.94 267.619 293.993 267.32 294.028 267.144C294.098 266.862 294.204 266.704 294.345 266.669C294.485 266.633 294.573 266.616 294.609 266.616H306.858C313.652 266.616 318.879 268.094 322.54 271.051C326.201 273.973 328.031 278.355 328.031 284.198C328.031 288.105 327.116 291.537 325.285 294.494C323.455 297.451 320.78 299.739 317.26 301.358C313.74 302.942 309.445 303.681 304.377 303.576H293.711C293.359 303.576 293.183 303.417 293.183 303.101ZM302.265 296.976C302.265 297.821 302.317 298.507 302.423 299.035C302.564 299.563 302.916 299.95 303.479 300.197C304.042 300.408 305.01 300.513 306.383 300.513C309.657 300.513 312.525 299.915 314.989 298.718C317.453 297.521 319.354 295.709 320.692 293.28C322.065 290.851 322.751 287.806 322.751 284.145C322.751 280.555 322.1 277.704 320.797 275.592C319.495 273.48 317.682 271.966 315.359 271.051C313.071 270.136 310.396 269.678 307.333 269.678H305.169C304.148 269.678 303.409 269.925 302.951 270.417C302.493 270.91 302.265 271.755 302.265 272.952V296.976Z" fill="white"/>
<path d="M138.582 341.8V328.494H146.983V330.053H140.482V334.311H146.413V335.831H140.482V340.241H146.983V341.8H138.582ZM158.26 341.8L162.366 335.071L158.241 328.494H160.408L163.564 333.55L166.548 328.494H168.677L164.59 335.147L168.734 341.8H166.567L163.374 336.668L160.408 341.8H158.26ZM180.31 341.8V328.494H184.853C185.918 328.494 186.792 328.672 187.476 329.026C188.161 329.381 188.667 329.856 188.997 330.452C189.326 331.048 189.491 331.726 189.491 332.486C189.491 333.208 189.326 333.873 188.997 334.482C188.68 335.077 188.18 335.559 187.495 335.926C186.811 336.281 185.93 336.459 184.853 336.459H182.211V341.8H180.31ZM182.211 334.881H184.777C185.778 334.881 186.488 334.665 186.906 334.235C187.337 333.791 187.552 333.208 187.552 332.486C187.552 331.713 187.337 331.117 186.906 330.699C186.488 330.281 185.778 330.072 184.777 330.072H182.211V334.881ZM207.032 342.028C205.752 342.028 204.624 341.743 203.649 341.173C202.686 340.59 201.925 339.785 201.368 338.759C200.823 337.719 200.55 336.516 200.55 335.147C200.55 333.791 200.823 332.6 201.368 331.573C201.925 330.534 202.686 329.723 203.649 329.14C204.624 328.558 205.752 328.266 207.032 328.266C208.337 328.266 209.478 328.558 210.453 329.14C211.429 329.723 212.183 330.534 212.715 331.573C213.26 332.6 213.533 333.791 213.533 335.147C213.533 336.516 213.26 337.719 212.715 338.759C212.183 339.785 211.429 340.59 210.453 341.173C209.478 341.743 208.337 342.028 207.032 342.028ZM207.051 340.336C207.963 340.336 208.762 340.127 209.446 339.709C210.13 339.291 210.656 338.695 211.024 337.922C211.404 337.149 211.594 336.224 211.594 335.147C211.594 334.07 211.404 333.145 211.024 332.372C210.656 331.599 210.13 331.01 209.446 330.604C208.762 330.186 207.963 329.977 207.051 329.977C206.139 329.977 205.34 330.186 204.656 330.604C203.972 331.01 203.44 331.599 203.059 332.372C202.679 333.145 202.489 334.07 202.489 335.147C202.489 336.224 202.679 337.149 203.059 337.922C203.44 338.695 203.972 339.291 204.656 339.709C205.34 340.127 206.139 340.336 207.051 340.336ZM225.324 341.8V328.494H229.829C230.881 328.494 231.743 328.672 232.414 329.026C233.086 329.381 233.58 329.856 233.897 330.452C234.226 331.035 234.391 331.7 234.391 332.448C234.391 333.157 234.226 333.816 233.897 334.425C233.58 335.02 233.08 335.502 232.395 335.869C231.711 336.224 230.837 336.402 229.772 336.402H227.225V341.8H225.324ZM232.319 341.8L229.449 335.888H231.54L234.524 341.8H232.319ZM227.225 334.957H229.696C230.634 334.957 231.324 334.729 231.768 334.273C232.211 333.804 232.433 333.208 232.433 332.486C232.433 331.751 232.218 331.168 231.787 330.737C231.356 330.306 230.659 330.091 229.696 330.091H227.225V334.957ZM249.454 341.8V330.053H245.519V328.494H255.308V330.053H251.355V341.8H249.454ZM270.83 342.028C269.854 342.028 268.999 341.857 268.264 341.515C267.529 341.16 266.959 340.666 266.553 340.032C266.148 339.398 265.945 338.657 265.945 337.808H267.941C267.954 338.29 268.068 338.733 268.283 339.139C268.511 339.532 268.834 339.848 269.253 340.089C269.683 340.317 270.209 340.431 270.83 340.431C271.362 340.431 271.819 340.343 272.199 340.165C272.592 339.988 272.889 339.747 273.092 339.443C273.295 339.126 273.396 338.765 273.396 338.359C273.396 337.89 273.289 337.504 273.073 337.2C272.858 336.896 272.566 336.649 272.199 336.459C271.844 336.256 271.426 336.078 270.944 335.926C270.475 335.774 269.981 335.61 269.462 335.432C268.41 335.09 267.624 334.646 267.105 334.102C266.598 333.557 266.344 332.847 266.344 331.973C266.344 331.225 266.522 330.579 266.877 330.034C267.231 329.476 267.726 329.045 268.359 328.741C269.005 328.425 269.766 328.266 270.64 328.266C271.502 328.266 272.256 328.425 272.902 328.741C273.548 329.058 274.055 329.495 274.423 330.053C274.79 330.61 274.974 331.263 274.974 332.011H272.959C272.959 331.669 272.87 331.333 272.693 331.003C272.516 330.674 272.249 330.408 271.895 330.205C271.54 329.989 271.103 329.882 270.583 329.882C270.152 329.869 269.766 329.939 269.424 330.091C269.081 330.243 268.815 330.465 268.625 330.756C268.435 331.048 268.34 331.396 268.34 331.802C268.34 332.207 268.422 332.537 268.587 332.79C268.765 333.031 269.018 333.24 269.348 333.417C269.677 333.595 270.057 333.759 270.488 333.911C270.932 334.051 271.419 334.209 271.952 334.387C272.611 334.602 273.193 334.868 273.7 335.185C274.22 335.489 274.625 335.888 274.917 336.383C275.221 336.864 275.373 337.485 275.373 338.245C275.373 338.904 275.202 339.519 274.86 340.089C274.518 340.659 274.011 341.128 273.339 341.496C272.668 341.85 271.831 342.028 270.83 342.028Z" fill="white"/>
<defs>
<linearGradient id="paint0_linear_3633_898" x1="259.005" y1="43.6923" x2="135.571" y2="263.516" gradientUnits="userSpaceOnUse">
<stop stop-color="#E3C962"/>
<stop offset="1" stop-color="#FFB400"/>
</linearGradient>
</defs>
</svg>
